<svg width="547" height="180" viewBox="0 0 547 180" fill="none" xmlns="http://www.w3.org/2000/svg"><path d="M149.653 120.58c-23.456-5.987-41.97 1.979-54.5103 28.458" stroke="#282655" stroke-width="20" stroke-linecap="round"/><path fill-rule="evenodd" clip-rule="evenodd" d="M159.343 123.053c1.365-5.352-1.866-10.797-7.217-12.163-13.388-3.416-26.465-3.1-38.285 2.796-11.737 5.854-20.8431 16.517-27.7362 31.072-2.3638 4.992-.2337 10.954 4.7577 13.318 4.9914 2.364 10.9545.234 13.3175-4.758 5.647-11.924 12.068-18.483 18.588-21.735 6.435-3.21 14.344-3.883 24.412-1.314 5.352 1.366 10.797-1.865 12.163-7.216z" fill="#80B918"/><path d="M149.183 59.2649c-16.071 18.1045-17.348 37.9845.44 61.2651" stroke="#F45151" stroke-width="20" stroke-linecap="round"/><path d="M149.169 59.3295c-23.504 5.7947-41.694-2.3296-54.0171-28.9104" stroke="#F9E712" stroke-width="20" stroke-linecap="round"/><path d="M41.3818 59.3295c23.5044 5.7947 41.6935-2.3296 54.0171-28.9104" stroke="#80B918" stroke-width="20" stroke-linecap="round"/><path d="M41.376 59.2649c16.0705 18.1045 17.3478 37.9845-.44 61.2651" stroke="#F45151" stroke-width="20" stroke-linecap="round"/><path fill-rule="evenodd" clip-rule="evenodd" d="M38.3997 110.881c-5.3513 1.365-8.5823 6.81-7.2166 12.162 1.3657 5.351 6.8109 8.582 12.1622 7.216 10.0747-2.571 17.9023-1.888 24.2554 1.306 6.4503 3.242 12.822 9.796 18.4851 21.754 1.8208 3.845 5.7767 5.992 9.7793 5.695-1.6659.122-3.3852-.172-5.0026-.938-4.9914-2.364-7.1215-8.326-4.7577-13.318 2.6729-5.644 5.6785-10.703 9.0413-15.123-5.273-6.964-11.4225-12.351-18.5634-15.94-11.7734-5.918-24.8013-6.23-38.183-2.814z" fill="#F9E712"/><path d="M274.164 59.7835c7.609 0 13.636 2.2223 18.08 6.667 4.445 4.3693 6.667 10.961 6.667 19.775v34.5775h-14.125V88.0335c0-5.2734-1.167-9.2284-3.503-11.865-2.335-2.712-5.687-4.068-10.057-4.068-4.746 0-8.55 1.582-11.413 4.746-2.862 3.0886-4.294 7.5333-4.294 13.334v30.6225h-14.125V88.0335c0-5.2734-1.167-9.2284-3.503-11.865-2.335-2.712-5.687-4.068-10.057-4.068-4.821 0-8.663 1.5443-11.526 4.633-2.787 3.0886-4.181 7.571-4.181 13.447v30.6225h-14.125V60.4615h13.447v7.684c2.26-2.712 5.085-4.7837 8.475-6.215 3.39-1.4314 7.157-2.147 11.3-2.147 4.52 0 8.513.8663 11.978 2.599 3.541 1.6573 6.328 4.1433 8.362 7.458 2.486-3.164 5.688-5.6124 9.605-7.345 3.918-1.808 8.249-2.712 12.995-2.712zm132.406 30.623c0 1.7326-.113 3.2393-.339 4.52h-47.573c.754 4.52 2.863 8.0985 6.328 10.7345 3.466 2.637 7.873 3.955 13.221 3.955 6.479 0 11.941-2.184 16.385-6.554l7.684 8.701c-2.862 3.24-6.365 5.688-10.509 7.345-4.068 1.658-8.701 2.486-13.899 2.486-5.499 0-10.509-.904-15.029-2.712-4.444-1.808-8.211-4.595-11.3-8.362-2.41 3.918-5.687 6.743-9.831 8.475-4.143 1.733-8.701 2.599-13.673 2.599-7.533 0-13.484-1.695-17.854-5.085-4.369-3.465-6.554-7.985-6.554-13.56 0-5.1222 2.034-9.2655 6.102-12.4295 4.068-3.2394 10.396-4.859 18.984-4.859h15.594v-1.017c0-4.2187-1.28-7.458-3.842-9.718-2.486-2.26-6.177-3.39-11.074-3.39-3.465 0-6.855.5273-10.17 1.582-3.239 1.0546-5.989 2.5236-8.249 4.407l-5.537-10.283c3.164-2.4107 6.969-4.2564 11.413-5.537 4.445-1.2807 9.116-1.921 14.012-1.921 10.622 0 18.118 3.0886 22.487 9.266 2.712-2.938 5.989-5.198 9.831-6.78 3.918-1.6574 8.136-2.486 12.656-2.486 5.801 0 11.037 1.3183 15.707 3.955 4.671 2.5613 8.325 6.1773 10.961 10.848 2.712 4.5953 4.068 9.8686 4.068 15.82zm-30.849-19.323c-4.218 0-7.985 1.2806-11.3 3.842-3.239 2.5613-5.198 6.1396-5.876 10.735h34.126c-.602-4.5954-2.523-8.1737-5.763-10.735-3.239-2.5614-6.968-3.842-11.187-3.842zm-46.443 40.2275c4.671 0 8.325-1.205 10.961-3.616 2.712-2.41 4.068-5.612 4.068-9.6045v-3.164H329.73c-8.136 0-12.204 2.599-12.204 7.7965 0 2.712 1.017 4.822 3.051 6.328 2.11 1.507 5.01 2.26 8.701 2.26zm139.461-50.8495l-25.877 60.3415h-14.577l-25.877-60.3415h14.69l18.758 44.7475 19.323-44.7475h13.56zm21.823 61.1325c-4.897 0-9.68-.64-14.351-1.921-4.671-1.28-8.4-2.9-11.187-4.859l5.424-10.735c2.712 1.808 5.951 3.277 9.718 4.407 3.842 1.055 7.609 1.582 11.3 1.582 8.437 0 12.656-2.222 12.656-6.667 0-2.109-1.092-3.5779-3.277-4.4065-2.109-.8287-5.537-1.6197-10.283-2.373-4.972-.7534-9.04-1.6197-12.204-2.599-3.089-.9794-5.801-2.6744-8.136-5.085-2.26-2.486-3.39-5.9137-3.39-10.283 0-5.7254 2.373-10.283 7.119-13.673 4.821-3.4654 11.3-5.198 19.436-5.198 4.143 0 8.287.4896 12.43 1.469 4.143.904 7.533 2.147 10.17 3.729l-5.424 10.735c-5.123-3.0134-10.886-4.52-17.289-4.52-4.143 0-7.307.6403-9.492 1.921-2.109 1.2053-3.164 2.825-3.164 4.859 0 2.26 1.13 3.8796 3.39 4.859 2.335.904 5.914 1.7703 10.735 2.599 4.821.7533 8.776 1.6196 11.865 2.599 3.089.9793 5.725 2.6366 7.91 4.972 2.26 2.3353 3.39 5.65 3.39 9.9435 0 5.65-2.448 10.17-7.345 13.56-4.897 3.39-11.564 5.085-20.001 5.085zm32.73-61.1325h14.125v60.3415h-14.125V60.4615zm7.119-9.944c-2.561 0-4.708-.791-6.441-2.373-1.732-1.6574-2.599-3.6914-2.599-6.102 0-2.4107.867-4.407 2.599-5.989 1.733-1.6574 3.88-2.486 6.441-2.486 2.562 0 4.709.791 6.441 2.373 1.733 1.5066 2.599 3.4276 2.599 5.763 0 2.486-.866 4.5953-2.599 6.328-1.657 1.6573-3.804 2.486-6.441 2.486z" fill="#2D2D2D"/></svg>