<svg width="547" height="180" viewBox="0 0 547 180" fill="none" xmlns="http://www.w3.org/2000/svg">
<path d="M149.653 120.58C126.197 114.593 107.683 122.559 95.1427 149.038" stroke="#282655" stroke-width="20" stroke-linecap="round"/>
<path fill-rule="evenodd" clip-rule="evenodd" d="M159.343 123.053C160.708 117.701 157.477 112.256 152.126 110.89C138.738 107.474 125.661 107.79 113.841 113.686C102.104 119.54 92.9979 130.203 86.1048 144.758C83.741 149.75 85.8711 155.712 90.8625 158.076C95.8539 160.44 101.817 158.31 104.18 153.318C109.827 141.394 116.248 134.835 122.768 131.583C129.203 128.373 137.112 127.7 147.18 130.269C152.532 131.635 157.977 128.404 159.343 123.053Z" fill="#80B918"/>
<path d="M149.183 59.2649C133.112 77.3694 131.835 97.2494 149.623 120.53" stroke="#F45151" stroke-width="20" stroke-linecap="round"/>
<path d="M149.169 59.3295C125.665 65.1242 107.475 56.9999 95.1519 30.4191" stroke="#F9E712" stroke-width="20" stroke-linecap="round"/>
<path d="M41.3818 59.3295C64.8862 65.1242 83.0753 56.9999 95.3989 30.4191" stroke="#80B918" stroke-width="20" stroke-linecap="round"/>
<path d="M41.376 59.2649C57.4465 77.3694 58.7238 97.2494 40.936 120.53" stroke="#F45151" stroke-width="20" stroke-linecap="round"/>
<path fill-rule="evenodd" clip-rule="evenodd" d="M38.3997 110.881C33.0484 112.246 29.8174 117.691 31.1831 123.043C32.5488 128.394 37.994 131.625 43.3453 130.259C53.42 127.688 61.2476 128.371 67.6007 131.565C74.051 134.807 80.4227 141.361 86.0858 153.319C87.9066 157.164 91.8625 159.311 95.8651 159.014C94.1992 159.136 92.4799 158.842 90.8625 158.076C85.8711 155.712 83.741 149.75 86.1048 144.758C88.7777 139.114 91.7833 134.055 95.1461 129.635C89.8731 122.671 83.7236 117.284 76.5827 113.695C64.8093 107.777 51.7814 107.465 38.3997 110.881Z" fill="#F9E712"/>
<path d="M274.164 59.7835C281.773 59.7835 287.8 62.0058 292.244 66.4505C296.689 70.8198 298.911 77.4115 298.911 86.2255V120.803H284.786V88.0335C284.786 82.7601 283.619 78.8051 281.283 76.1685C278.948 73.4565 275.596 72.1005 271.226 72.1005C266.48 72.1005 262.676 73.6825 259.813 76.8465C256.951 79.9351 255.519 84.3798 255.519 90.1805V120.803H241.394V88.0335C241.394 82.7601 240.227 78.8051 237.891 76.1685C235.556 73.4565 232.204 72.1005 227.834 72.1005C223.013 72.1005 219.171 73.6448 216.308 76.7335C213.521 79.8221 212.127 84.3045 212.127 90.1805V120.803H198.002V60.4615H211.449V68.1455C213.709 65.4335 216.534 63.3618 219.924 61.9305C223.314 60.4991 227.081 59.7835 231.224 59.7835C235.744 59.7835 239.737 60.6498 243.202 62.3825C246.743 64.0398 249.53 66.5258 251.564 69.8405C254.05 66.6765 257.252 64.2281 261.169 62.4955C265.087 60.6875 269.418 59.7835 274.164 59.7835ZM406.57 90.4065C406.57 92.1391 406.457 93.6458 406.231 94.9265H358.658C359.412 99.4465 361.521 103.025 364.986 105.661C368.452 108.298 372.859 109.616 378.207 109.616C384.686 109.616 390.148 107.432 394.592 103.062L402.276 111.763C399.414 115.003 395.911 117.451 391.767 119.108C387.699 120.766 383.066 121.594 377.868 121.594C372.369 121.594 367.359 120.69 362.839 118.882C358.395 117.074 354.628 114.287 351.539 110.52C349.129 114.438 345.852 117.263 341.708 118.995C337.565 120.728 333.007 121.594 328.035 121.594C320.502 121.594 314.551 119.899 310.181 116.509C305.812 113.044 303.627 108.524 303.627 102.949C303.627 97.8268 305.661 93.6835 309.729 90.5195C313.797 87.2801 320.125 85.6605 328.713 85.6605H344.307V84.6435C344.307 80.4248 343.027 77.1855 340.465 74.9255C337.979 72.6655 334.288 71.5355 329.391 71.5355C325.926 71.5355 322.536 72.0628 319.221 73.1175C315.982 74.1721 313.232 75.6411 310.972 77.5245L305.435 67.2415C308.599 64.8308 312.404 62.9851 316.848 61.7045C321.293 60.4238 325.964 59.7835 330.86 59.7835C341.482 59.7835 348.978 62.8721 353.347 69.0495C356.059 66.1115 359.336 63.8515 363.178 62.2695C367.096 60.6121 371.314 59.7835 375.834 59.7835C381.635 59.7835 386.871 61.1018 391.541 63.7385C396.212 66.2998 399.866 69.9158 402.502 74.5865C405.214 79.1818 406.57 84.4551 406.57 90.4065ZM375.721 71.0835C371.503 71.0835 367.736 72.3641 364.421 74.9255C361.182 77.4868 359.223 81.0651 358.545 85.6605H392.671C392.069 81.0651 390.148 77.4868 386.908 74.9255C383.669 72.3641 379.94 71.0835 375.721 71.0835ZM329.278 111.311C333.949 111.311 337.603 110.106 340.239 107.695C342.951 105.285 344.307 102.083 344.307 98.0905V94.9265H329.73C321.594 94.9265 317.526 97.5255 317.526 102.723C317.526 105.435 318.543 107.545 320.577 109.051C322.687 110.558 325.587 111.311 329.278 111.311ZM468.739 60.4615L442.862 120.803H428.285L402.408 60.4615H417.098L435.856 105.209L455.179 60.4615H468.739ZM490.562 121.594C485.665 121.594 480.882 120.954 476.211 119.673C471.54 118.393 467.811 116.773 465.024 114.814L470.448 104.079C473.16 105.887 476.399 107.356 480.166 108.486C484.008 109.541 487.775 110.068 491.466 110.068C499.903 110.068 504.122 107.846 504.122 103.401C504.122 101.292 503.03 99.8231 500.845 98.9945C498.736 98.1658 495.308 97.3748 490.562 96.6215C485.59 95.8681 481.522 95.0018 478.358 94.0225C475.269 93.0431 472.557 91.3481 470.222 88.9375C467.962 86.4515 466.832 83.0238 466.832 78.6545C466.832 72.9291 469.205 68.3715 473.951 64.9815C478.772 61.5161 485.251 59.7835 493.387 59.7835C497.53 59.7835 501.674 60.2731 505.817 61.2525C509.96 62.1565 513.35 63.3995 515.987 64.9815L510.563 75.7165C505.44 72.7031 499.677 71.1965 493.274 71.1965C489.131 71.1965 485.967 71.8368 483.782 73.1175C481.673 74.3228 480.618 75.9425 480.618 77.9765C480.618 80.2365 481.748 81.8561 484.008 82.8355C486.343 83.7395 489.922 84.6058 494.743 85.4345C499.564 86.1878 503.519 87.0541 506.608 88.0335C509.697 89.0128 512.333 90.6701 514.518 93.0055C516.778 95.3408 517.908 98.6555 517.908 102.949C517.908 108.599 515.46 113.119 510.563 116.509C505.666 119.899 498.999 121.594 490.562 121.594ZM523.292 60.4615H537.417V120.803H523.292V60.4615ZM530.411 50.5175C527.85 50.5175 525.703 49.7265 523.97 48.1445C522.238 46.4871 521.371 44.4531 521.371 42.0425C521.371 39.6318 522.238 37.6355 523.97 36.0535C525.703 34.3961 527.85 33.5675 530.411 33.5675C532.973 33.5675 535.12 34.3585 536.852 35.9405C538.585 37.4471 539.451 39.3681 539.451 41.7035C539.451 44.1895 538.585 46.2988 536.852 48.0315C535.195 49.6888 533.048 50.5175 530.411 50.5175Z" fill="#2D2D2D"/>
</svg>
