<svg data-v-d3f97b9e="" xmlns="http://www.w3.org/2000/svg" viewBox="0 0 416 90"><!----><!----><!----><g data-v-d3f97b9e="" id="8fa7bd77-2750-4a9a-83c5-1f571996f649" fill="white" transform="matrix(5.602241039276123,0,0,5.602241039276123,115.77352905273438,-25.1540584564209)"><path d="M0.62 8.76L0.42 8.25L0.42 8.25Q1.02 7.99 1.72 7.99L1.72 7.99L1.72 7.99Q2.41 7.99 2.86 8.16L2.86 8.16L2.86 8.16Q3.32 8.33 3.81 8.69L3.81 8.69L3.81 8.69Q4.31 8.19 4.84 7.99L4.84 7.99L4.84 7.99Q5.36 7.78 6.08 7.78L6.08 7.78L6.08 7.78Q7.50 7.78 7.98 8.88L7.98 8.88L7.98 8.88Q8.53 8.27 9.08 8.03L9.08 8.03L9.08 8.03Q9.63 7.78 10.52 7.78L10.52 7.78L10.52 7.78Q11.41 7.78 11.96 8.34L11.96 8.34L11.96 8.34Q12.52 8.89 12.52 9.84L12.52 9.84L12.52 13.44L12.52 13.44Q12.52 13.82 12.70 14.04L12.70 14.04L12.70 14.04Q12.88 14.25 13.26 14.25L13.26 14.25L13.26 14.25Q13.64 14.25 14.13 13.85L14.13 13.85L14.38 14.18L14.38 14.18Q13.26 15.20 12.14 15.20L12.14 15.20L12.14 15.20Q10.42 15.20 10.42 13.15L10.42 13.15L10.42 9.55L10.42 9.55Q10.42 9.11 10.16 8.88L10.16 8.88L10.16 8.88Q9.91 8.64 9.47 8.64L9.47 8.64L9.47 8.64Q9.03 8.64 8.60 9.02L8.60 9.02L8.60 9.02Q8.18 9.39 8.18 10.00L8.18 10.00L8.18 14.99L6.08 14.99L6.08 9.55L6.08 9.55Q6.08 9.11 5.82 8.88L5.82 8.88L5.82 8.88Q5.57 8.64 5.13 8.64L5.13 8.64L5.13 8.64Q4.69 8.64 4.26 9.02L4.26 9.02L4.26 9.02Q3.84 9.39 3.84 10.00L3.84 10.00L3.84 14.99L1.74 14.99L1.74 8.55L1.74 8.55Q1.11 8.55 0.62 8.76L0.62 8.76ZM20.36 7.99L22.46 7.99L22.46 13.44L22.46 13.44Q22.46 13.82 22.64 14.04L22.64 14.04L22.64 14.04Q22.82 14.25 23.20 14.25L23.20 14.25L23.20 14.25Q23.58 14.25 24.07 13.85L24.07 13.85L24.32 14.18L24.32 14.18Q23.20 15.20 22.08 15.20L22.08 15.20L22.08 15.20Q20.75 15.20 20.44 13.96L20.44 13.96L20.44 13.96Q19.71 15.20 18.30 15.20L18.30 15.20L18.30 15.20Q16.69 15.20 15.85 14.16L15.85 14.16L15.85 14.16Q15.01 13.12 15.01 11.50L15.01 11.50L15.01 11.50Q15.01 9.88 15.91 8.83L15.91 8.83L15.91 8.83Q16.81 7.78 18.44 7.78L18.44 7.78L18.44 7.78Q19.68 7.78 20.36 8.78L20.36 8.78L20.36 7.99ZM17.57 9.37L17.57 9.37L17.57 9.37Q17.18 10.15 17.18 11.49L17.18 11.49L17.18 11.49Q17.18 12.84 17.57 13.62L17.57 13.62L17.57 13.62Q17.96 14.41 18.77 14.41L18.77 14.41L18.77 14.41Q19.57 14.41 20.00 13.62L20.00 13.62L20.00 13.62Q20.43 12.82 20.43 11.49L20.43 11.49L20.43 11.49Q20.43 10.16 20.00 9.37L20.00 9.37L20.00 9.37Q19.57 8.58 18.77 8.58L18.77 8.58L18.77 8.58Q17.96 8.58 17.57 9.37ZM27.87 11.76L27.87 11.76Q28.78 11.68 29.28 11.07L29.28 11.07L29.28 11.07Q29.78 10.46 29.78 9.84L29.78 9.84L29.78 9.84Q29.78 9.21 29.51 8.88L29.51 8.88L29.51 8.88Q29.23 8.54 28.68 8.54L28.68 8.54L28.68 8.54Q28.13 8.54 27.62 9.32L27.62 9.32L27.62 9.32Q27.12 10.11 27.12 11.42L27.12 11.42L27.12 11.42Q27.12 12.74 27.59 13.54L27.59 13.54L27.59 13.54Q28.07 14.34 28.95 14.34L28.95 14.34L28.95 14.34Q30.30 14.34 31.23 13.29L31.23 13.29L31.63 13.54L31.63 13.54Q31.15 14.29 30.37 14.75L30.37 14.75L30.37 14.75Q29.58 15.20 28.60 15.20L28.60 15.20L28.60 15.20Q26.94 15.20 25.94 14.11L25.94 14.11L25.94 14.11Q24.95 13.01 24.95 11.45L24.95 11.45L24.95 11.45Q24.95 9.90 26.00 8.84L26.00 8.84L26.00 8.84Q27.06 7.78 28.94 7.78L28.94 7.78L28.94 7.78Q30.17 7.78 30.87 8.36L30.87 8.36L30.87 8.36Q31.57 8.93 31.57 9.81L31.57 9.81L31.57 9.81Q31.57 10.70 30.79 11.45L30.79 11.45L30.79 11.45Q30.02 12.19 28.74 12.19L28.74 12.19L28.74 12.19Q28.31 12.19 27.90 12.10L27.90 12.10L27.87 11.76ZM37.86 9.48L37.86 9.48L37.86 9.48Q37.55 9.17 37.55 8.72L37.55 8.72L37.55 8.72Q37.55 8.27 37.86 7.96L37.86 7.96L37.86 7.96Q38.18 7.64 38.65 7.64L38.65 7.64L38.65 7.64Q39.13 7.64 39.47 8.00L39.47 8.00L39.47 8.00Q39.82 8.36 39.96 8.95L39.96 8.95L39.96 8.95Q40.22 9.97 40.22 10.95L40.22 10.95L40.22 10.95Q40.22 11.93 39.98 12.66L39.98 12.66L39.98 12.66Q39.75 13.38 39.37 13.84L39.37 13.84L39.37 13.84Q38.99 14.29 38.53 14.62L38.53 14.62L38.53 14.62Q37.66 15.20 36.81 15.20L36.81 15.20L36.81 15.20Q35.62 15.20 34.92 14.61L34.92 14.61L34.92 14.61Q34.23 14.01 34.23 12.87L34.23 12.87L34.23 8.46L34.23 8.46Q33.46 8.65 33.05 9.14L33.05 9.14L32.68 8.71L32.68 8.71Q33.08 8.29 33.70 8.04L33.70 8.04L33.70 8.04Q34.33 7.78 34.94 7.78L34.94 7.78L34.94 7.78Q35.55 7.78 35.94 8.03L35.94 8.03L35.94 8.03Q36.33 8.27 36.33 8.64L36.33 8.64L36.33 13.30L36.33 13.30Q36.33 13.75 36.61 13.98L36.61 13.98L36.61 13.98Q36.89 14.21 37.31 14.21L37.31 14.21L37.31 14.21Q38.19 14.21 38.84 13.29L38.84 13.29L38.84 13.29Q39.48 12.38 39.48 11.05L39.48 11.05L39.48 11.05Q39.48 10.37 39.21 9.63L39.21 9.63L39.21 9.63Q38.96 9.80 38.57 9.80L38.57 9.80L38.57 9.80Q38.18 9.80 37.86 9.48ZM43.51 9.14L43.51 9.14L43.51 9.14Q43.18 8.62 43.18 8.22L43.18 8.22L43.18 8.22Q43.18 7.81 43.49 7.50L43.49 7.50L43.49 7.50Q43.81 7.18 44.25 7.18L44.25 7.18L44.25 7.18Q44.70 7.18 45.02 7.50L45.02 7.50L45.02 7.50Q45.33 7.81 45.33 8.25L45.33 8.25L45.33 8.25Q45.33 8.68 44.90 9.17L44.90 9.17L44.90 9.17Q46.05 10.01 46.66 10.81L46.66 10.81L46.66 10.81Q47.28 11.62 47.28 12.68L47.28 12.68L47.28 12.68Q47.28 13.73 46.48 14.47L46.48 14.47L46.48 14.47Q45.68 15.20 44.21 15.20L44.21 15.20L44.21 15.20Q43.54 15.20 42.86 14.91L42.86 14.91L42.86 14.91Q42.18 14.62 41.83 14.18L41.83 14.18L42.15 13.85L42.15 13.85Q42.77 14.34 43.48 14.34L43.48 14.34L43.48 14.34Q44.20 14.34 44.65 13.95L44.65 13.95L44.65 13.95Q45.11 13.57 45.11 12.75L45.11 12.75L45.11 12.75Q45.11 11.47 44.16 10.07L44.16 10.07L42.04 12.71L41.69 12.40L41.69 12.40Q42.76 10.68 43.51 9.14ZM49.86 6.40L49.86 6.40L49.86 6.40Q49.53 6.08 49.53 5.61L49.53 5.61L49.53 5.61Q49.53 5.15 49.86 4.82L49.86 4.82L49.86 4.82Q50.19 4.49 50.65 4.49L50.65 4.49L50.65 4.49Q51.11 4.49 51.44 4.82L51.44 4.82L51.44 4.82Q51.77 5.15 51.77 5.61L51.77 5.61L51.77 5.61Q51.77 6.08 51.44 6.40L51.44 6.40L51.44 6.40Q51.11 6.73 50.65 6.73L50.65 6.73L50.65 6.73Q50.19 6.73 49.86 6.40ZM50.39 7.78L50.39 7.78L50.39 7.78Q51.70 7.78 51.70 8.92L51.70 8.92L51.70 13.44L51.70 13.44Q51.70 13.82 51.88 14.04L51.88 14.04L51.88 14.04Q52.07 14.25 52.44 14.25L52.44 14.25L52.44 14.25Q52.82 14.25 53.31 13.85L53.31 13.85L53.56 14.18L53.56 14.18Q52.44 15.20 51.32 15.20L51.32 15.20L51.32 15.20Q49.60 15.20 49.60 13.15L49.60 13.15L49.60 8.46L49.60 8.46Q48.83 8.65 48.43 9.14L48.43 9.14L48.05 8.71L48.05 8.71Q48.45 8.29 49.08 8.04L49.08 8.04L49.08 8.04Q49.70 7.78 50.39 7.78Z"></path></g><!----><g data-v-d3f97b9e="" id="6f9d035f-9045-45f1-a17b-2c7ab00fb810" transform="matrix(1.1972155570983887,0,0,1.1972155570983887,-9.769780158996582,-14.411070823669434)" stroke="none" fill="white"><path d="M11.5 15.7l1.6 13c0 .3.2.6.5.8.1.1.3.1.5.1s.3 0 .5-.1l9.7-5v15.7h-3.9c-1.2 0-2.2 1-2.2 2.2v1.4c0 .2 0 .4.1.5-3.2 1.1-5.5 4.2-5.5 7.7v19c0 4.1 3.1 7.5 7 8.1V81c0 .9.9 1.4 2 1.6v2.7c0 .6.4 1 1 1s1-.4 1-1v-2.6h.5v3.5c0 .6.4 1 1 1s1-.4 1-1v-3.5h.5v2.6c0 .6.4 1 1 1s1-.4 1-1v-2.7c1.1-.2 2-.7 2-1.6v-1.8c4-.6 7-4 7-8.1v-19c0-3.6-2.3-6.6-5.5-7.7 0-.2.1-.3.1-.5v-1.4c0-1.2-1-2.2-2.2-2.2h-3.9V25.7l3.1 10.5c.1.3.3.6.6.7.1 0 .2.1.3.1.2 0 .4-.1.6-.2l9.4-6.9 4.9 10.8c.1.3.4.5.7.6h.2c.3 0 .5-.1.7-.3l8.7-8.6 6.7 10.9c.2.3.5.5.8.5h.1c.3 0 .6-.1.8-.4l6.1-7.7v10.8h-4.9c-1.2 0-2.3 1-2.3 2.3v1.5c-7 2.5-11.5 8.1-11.5 14.3 0 7.2 6 13.2 14.2 15.1v2.8c0 .8.7 1.5 1.8 1.8v1.5c0 .6.4 1 1 1s1-.4 1-1v-1.3h.5v1.9c0 .6.4 1 1 1s1-.4 1-1v-1.9h.5v1.3c0 .6.4 1 1 1s1-.4 1-1v-1.5c1.2-.3 2-.9 2-1.8v-2.8c8.2-1.9 14.2-7.9 14.2-15.1 0-6-4.6-11.7-11.5-14.3v-1.5c0-1.2-1-2.3-2.3-2.3H72V34.7l6.3 8.2c.2.2.5.4.8.4.3 0 .6-.2.8-.5L87 31.7c1.7-.2 2.7-.3 2.8-.4.5-.1.9-.6.8-1.1-.1-.5-.6-.9-1.1-.8-.5.1-46.2 7.3-79.2-17-.4-.3-1.1-.2-1.4.2-.4.4-.3 1.1.2 1.4.8.6 1.6 1.2 2.4 1.7zm3.3 46.9h21.1v6.3H14.8v-6.3zm21-2h-21v-6.3h21.1v6.3zm-8.5 20.2h-4.1c-.7 0-1.2-.1-1.4-.2v-1.3h7v1.3c-.3.1-.8.2-1.5.2zm2.3-3.5h-8.7c-3.4 0-6.2-2.8-6.2-6.2v-.2h21.1v.2c0 3.4-2.8 6.2-6.2 6.2zm6.2-25.2v.2h-21v-.2c0-3.1 2.3-5.7 5.3-6.1H30.7c2.8.4 5.1 3 5.1 6.1zm-5.4-9.7v1.5H20.3v-1.5c0-.1.1-.2.2-.2h9.8c0 .1.1.1.1.2zm45.4 9.7c1.7 2.2 10 14-.3 25.6-1.5.3-3 .5-4.6.5-1.4 0-2.8-.1-4.1-.4-10-11.7-1.8-23.5-.1-25.7h9.1zM53.4 64.5C53.4 59 57.6 54 64 51.9h.1c.1 0 .2.1.3.1-2.5 3.8-8 14.4-.6 25-6.2-2.2-10.4-7-10.4-12.5zm20.9 17.6c-.2.1-.7.2-1.4.2h-4c-.7 0-1.2-.1-1.4-.2v-2.2c1.1.2 2.2.2 3.4.2 1.2 0 2.3-.1 3.4-.2v2.2zm14.3-17.6c0 5.3-4 10-9.7 12.2 7.3-10.5 1.9-20.9-.6-24.7 6.1 2.3 10.3 7.3 10.3 12.5zM77.1 48.7v1.1c0 .1-.1.3-.3.3h-.4-10.1-1.1c-.1 0-.3-.1-.3-.3v-1.1c0-.1.1-.3.3-.3H77s.1.1.1.3zM13.7 17.2c3.3 2.1 6.6 3.9 10 5.4l-8.8 4.5-1.2-9.9zm17.2 17.1L28 24.4c3.7 1.5 7.5 2.7 11.2 3.7l-8.3 6.2zm15.5 4.2l-4.3-9.6c4 1 8 1.7 11.8 2.2l-7.5 7.4zm16.8 2.4l-5.8-9.4c4.5.5 8.7.7 12.5.8l-6.7 8.6zm9.7-8.5c4.7 0 8.6-.2 11.5-.5L79 40.6l-6.2-8.1c0-.1 0-.1.1-.1z"></path></g><!----><g data-v-d3f97b9e="" id="53b9370e-a731-4b61-bcbf-7fe5febc2423" fill="white" transform="matrix(0.3876531720161438,0,0,0.3876531720161438,117.87838745117188,57.798133850097656)"><path d="M0.64 15.68L0.64 5.88L2.88 5.88L4.20 15.18L4.37 15.18L5.68 5.88L7.92 5.88L7.92 15.68L6.83 15.68L6.83 6.38L6.66 6.38L5.35 15.68L3.22 15.68L1.90 6.38L1.74 6.38L1.74 15.68L0.64 15.68ZM22.67 15.68L21.95 13.24L17.75 13.24L17.04 15.68L15.78 15.68L18.75 5.88L20.96 5.88L23.93 15.68L22.67 15.68ZM19.94 6.38L19.77 6.38L18.07 12.15L21.63 12.15L19.94 6.38ZM34.51 5.88L37.34 15.18L37.51 15.18L37.51 5.88L38.68 5.88L38.68 15.68L36.33 15.68L33.50 6.38L33.33 6.38L33.33 15.68L32.16 15.68L32.16 5.88L34.51 5.88ZM53.80 15.68L53.09 13.24L48.89 13.24L48.17 15.68L46.91 15.68L49.88 5.88L52.09 5.88L55.06 15.68L53.80 15.68ZM51.07 6.38L50.90 6.38L49.21 12.15L52.77 12.15L51.07 6.38ZM65.62 12.07L65.62 10.98L69.99 10.98L69.99 15.68L68.89 15.68L68.89 14.50L68.73 14.50L68.73 14.50Q68.49 15.12 67.89 15.50L67.89 15.50L67.89 15.50Q67.28 15.88 66.49 15.88L66.49 15.88L66.49 15.88Q64.90 15.88 64.00 14.85L64.00 14.85L64.00 14.85Q63.10 13.83 63.10 11.87L63.10 11.87L63.10 9.69L63.10 9.69Q63.10 7.78 64.01 6.73L64.01 6.73L64.01 6.73Q64.92 5.68 66.54 5.68L66.54 5.68L66.54 5.68Q67.38 5.68 68.03 5.96L68.03 5.96L68.03 5.96Q68.67 6.23 69.10 6.71L69.10 6.71L69.10 6.71Q69.54 7.20 69.76 7.85L69.76 7.85L69.76 7.85Q69.99 8.50 69.99 9.24L69.99 9.24L69.99 9.41L68.81 9.41L68.81 9.24L68.81 9.24Q68.81 8.76 68.68 8.32L68.68 8.32L68.68 8.32Q68.54 7.87 68.27 7.53L68.27 7.53L68.27 7.53Q68.00 7.18 67.57 6.98L67.57 6.98L67.57 6.98Q67.14 6.78 66.54 6.78L66.54 6.78L66.54 6.78Q65.41 6.78 64.84 7.60L64.84 7.60L64.84 7.60Q64.27 8.43 64.27 9.77L64.27 9.77L64.27 11.79L64.27 11.79Q64.27 13.23 64.84 14.01L64.84 14.01L64.84 14.01Q65.41 14.78 66.57 14.78L66.57 14.78L66.57 14.78Q67.62 14.78 68.22 14.11L68.22 14.11L68.22 14.11Q68.81 13.44 68.81 12.24L68.81 12.24L68.81 12.07L65.62 12.07ZM79.16 15.68L79.16 5.88L85.09 5.88L85.09 6.97L80.33 6.97L80.33 10.22L85.01 10.22L85.01 11.31L80.33 11.31L80.33 14.59L85.18 14.59L85.18 15.68L79.16 15.68ZM100.76 12.15L100.76 15.68L99.58 15.68L99.58 12.40L99.58 12.40Q99.58 12.04 99.41 11.84L99.41 11.84L99.41 11.84Q99.25 11.65 98.83 11.65L98.83 11.65L95.77 11.65L95.77 15.68L94.60 15.68L94.60 5.88L98.10 5.88L98.10 5.88Q98.85 5.88 99.41 6.10L99.41 6.10L99.41 6.10Q99.97 6.31 100.34 6.68L100.34 6.68L100.34 6.68Q100.72 7.04 100.91 7.53L100.91 7.53L100.91 7.53Q101.09 8.01 101.09 8.54L101.09 8.54L101.09 8.96L101.09 8.96Q101.09 9.51 100.79 10.05L100.79 10.05L100.79 10.05Q100.49 10.60 99.86 10.89L99.86 10.89L99.86 11.06L99.86 11.06Q100.28 11.13 100.52 11.40L100.52 11.40L100.52 11.40Q100.76 11.66 100.76 12.15L100.76 12.15ZM95.77 6.97L95.77 10.56L97.96 10.56L97.96 10.56Q98.95 10.56 99.44 10.13L99.44 10.13L99.44 10.13Q99.92 9.70 99.92 8.88L99.92 8.88L99.92 8.62L99.92 8.62Q99.92 7.88 99.44 7.43L99.44 7.43L99.44 7.43Q98.95 6.97 97.96 6.97L97.96 6.97L95.77 6.97ZM125.87 15.68L125.87 5.88L131.89 5.88L131.89 6.97L127.05 6.97L127.05 10.22L131.81 10.22L131.81 11.31L127.05 11.31L127.05 15.68L125.87 15.68ZM140.95 11.87L140.95 9.69L140.95 9.69Q140.95 7.78 141.86 6.73L141.86 6.73L141.86 6.73Q142.77 5.68 144.40 5.68L144.40 5.68L144.40 5.68Q146.02 5.68 146.93 6.73L146.93 6.73L146.93 6.73Q147.84 7.78 147.84 9.69L147.84 9.69L147.84 11.87L147.84 11.87Q147.84 13.83 146.93 14.85L146.93 14.85L146.93 14.85Q146.02 15.88 144.40 15.88L144.40 15.88L144.40 15.88Q142.77 15.88 141.86 14.85L141.86 14.85L141.86 14.85Q140.95 13.83 140.95 11.87L140.95 11.87ZM144.40 14.78L144.40 14.78L144.40 14.78Q145.53 14.78 146.10 14.01L146.10 14.01L146.10 14.01Q146.66 13.23 146.66 11.79L146.66 11.79L146.66 9.77L146.66 9.77Q146.66 8.43 146.10 7.60L146.10 7.60L146.10 7.60Q145.53 6.78 144.40 6.78L144.40 6.78L144.40 6.78Q143.26 6.78 142.69 7.60L142.69 7.60L142.69 7.60Q142.13 8.43 142.13 9.77L142.13 9.77L142.13 11.79L142.13 11.79Q142.13 13.23 142.69 14.01L142.69 14.01L142.69 14.01Q143.26 14.78 144.40 14.78ZM163.03 12.15L163.03 15.68L161.85 15.68L161.85 12.40L161.85 12.40Q161.85 12.04 161.69 11.84L161.69 11.84L161.69 11.84Q161.52 11.65 161.10 11.65L161.10 11.65L158.05 11.65L158.05 15.68L156.87 15.68L156.87 5.88L160.37 5.88L160.37 5.88Q161.13 5.88 161.69 6.10L161.69 6.10L161.69 6.10Q162.25 6.31 162.62 6.68L162.62 6.68L162.62 6.68Q162.99 7.04 163.18 7.53L163.18 7.53L163.18 7.53Q163.37 8.01 163.37 8.54L163.37 8.54L163.37 8.96L163.37 8.96Q163.37 9.51 163.06 10.05L163.06 10.05L163.06 10.05Q162.76 10.60 162.13 10.89L162.13 10.89L162.13 11.06L162.13 11.06Q162.55 11.13 162.79 11.40L162.79 11.40L162.79 11.40Q163.03 11.66 163.03 12.15L163.03 12.15ZM158.05 6.97L158.05 10.56L160.23 10.56L160.23 10.56Q161.22 10.56 161.71 10.13L161.71 10.13L161.71 10.13Q162.19 9.70 162.19 8.88L162.19 8.88L162.19 8.62L162.19 8.62Q162.19 7.88 161.71 7.43L161.71 7.43L161.71 7.43Q161.22 6.97 160.23 6.97L160.23 6.97L158.05 6.97ZM188.13 15.68L188.13 5.88L194.07 5.88L194.07 6.97L189.31 6.97L189.31 10.22L193.98 10.22L193.98 11.31L189.31 11.31L189.31 14.59L194.15 14.59L194.15 15.68L188.13 15.68ZM205.53 15.68L202.76 5.88L204.02 5.88L206.58 15.18L206.75 15.18L209.31 5.88L210.57 5.88L207.80 15.68L205.53 15.68ZM219.27 15.68L219.27 5.88L225.20 5.88L225.20 6.97L220.44 6.97L220.44 10.22L225.12 10.22L225.12 11.31L220.44 11.31L220.44 14.59L225.29 14.59L225.29 15.68L219.27 15.68ZM236.89 5.88L239.72 15.18L239.89 15.18L239.89 5.88L241.07 5.88L241.07 15.68L238.71 15.68L235.89 6.38L235.72 6.38L235.72 15.68L234.54 15.68L234.54 5.88L236.89 5.88ZM249.93 6.97L249.93 5.88L256.82 5.88L256.82 6.97L253.96 6.97L253.96 15.68L252.78 15.68L252.78 6.97L249.93 6.97ZM271.25 9.21L271.25 8.71L271.25 8.71Q271.25 8.23 271.06 7.87L271.06 7.87L271.06 7.87Q270.87 7.50 270.55 7.27L270.55 7.27L270.55 7.27Q270.23 7.03 269.81 6.90L269.81 6.90L269.81 6.90Q269.39 6.78 268.93 6.78L268.93 6.78L268.93 6.78Q268.52 6.78 268.16 6.88L268.16 6.88L268.16 6.88Q267.79 6.99 267.51 7.18L267.51 7.18L267.51 7.18Q267.22 7.38 267.05 7.66L267.05 7.66L267.05 7.66Q266.88 7.95 266.88 8.33L266.88 8.33L266.88 8.41L266.88 8.41Q266.88 8.82 267.05 9.11L267.05 9.11L267.05 9.11Q267.22 9.39 267.55 9.60L267.55 9.60L267.55 9.60Q267.88 9.80 268.37 9.93L268.37 9.93L268.37 9.93Q268.86 10.07 269.51 10.16L269.51 10.16L269.51 10.16Q271.05 10.40 271.78 11.07L271.78 11.07L271.78 11.07Q272.51 11.73 272.51 12.85L272.51 12.85L272.51 13.02L272.51 13.02Q272.51 13.65 272.29 14.17L272.29 14.17L272.29 14.17Q272.08 14.70 271.65 15.08L271.65 15.08L271.65 15.08Q271.22 15.46 270.59 15.67L270.59 15.67L270.59 15.67Q269.96 15.88 269.14 15.88L269.14 15.88L269.14 15.88Q268.20 15.88 267.48 15.60L267.48 15.60L267.48 15.60Q266.76 15.33 266.27 14.85L266.27 14.85L266.27 14.85Q265.79 14.36 265.54 13.71L265.54 13.71L265.54 13.71Q265.29 13.06 265.29 12.29L265.29 12.29L265.29 11.87L266.46 11.87L266.46 12.21L266.46 12.21Q266.46 13.50 267.17 14.14L267.17 14.14L267.17 14.14Q267.88 14.78 269.14 14.78L269.14 14.78L269.14 14.78Q270.23 14.78 270.78 14.30L270.78 14.30L270.78 14.30Q271.33 13.82 271.33 13.02L271.33 13.02L271.33 12.94L271.33 12.94Q271.33 12.17 270.77 11.76L270.77 11.76L270.77 11.76Q270.20 11.35 268.93 11.17L268.93 11.17L268.93 11.17Q268.18 11.07 267.59 10.87L267.59 10.87L267.59 10.87Q266.99 10.67 266.57 10.34L266.57 10.34L266.57 10.34Q266.15 10.01 265.93 9.55L265.93 9.55L265.93 9.55Q265.71 9.09 265.71 8.46L265.71 8.46L265.71 8.29L265.71 8.29Q265.71 7.71 265.94 7.24L265.94 7.24L265.94 7.24Q266.18 6.76 266.61 6.41L266.61 6.41L266.61 6.41Q267.04 6.06 267.63 5.87L267.63 5.87L267.63 5.87Q268.23 5.68 268.94 5.68L268.94 5.68L268.94 5.68Q269.77 5.68 270.42 5.92L270.42 5.92L270.42 5.92Q271.07 6.16 271.52 6.56L271.52 6.56L271.52 6.56Q271.96 6.96 272.20 7.50L272.20 7.50L272.20 7.50Q272.43 8.04 272.43 8.62L272.43 8.62L272.43 9.21L271.25 9.21ZM302.39 9.21L302.39 8.71L302.39 8.71Q302.39 8.23 302.20 7.87L302.20 7.87L302.20 7.87Q302.01 7.50 301.69 7.27L301.69 7.27L301.69 7.27Q301.36 7.03 300.94 6.90L300.94 6.90L300.94 6.90Q300.52 6.78 300.06 6.78L300.06 6.78L300.06 6.78Q299.66 6.78 299.29 6.88L299.29 6.88L299.29 6.88Q298.93 6.99 298.64 7.18L298.64 7.18L298.64 7.18Q298.35 7.38 298.19 7.66L298.19 7.66L298.19 7.66Q298.02 7.95 298.02 8.33L298.02 8.33L298.02 8.41L298.02 8.41Q298.02 8.82 298.19 9.11L298.19 9.11L298.19 9.11Q298.35 9.39 298.68 9.60L298.68 9.60L298.68 9.60Q299.01 9.80 299.50 9.93L299.50 9.93L299.50 9.93Q299.99 10.07 300.65 10.16L300.65 10.16L300.65 10.16Q302.19 10.40 302.92 11.07L302.92 11.07L302.92 11.07Q303.65 11.73 303.65 12.85L303.65 12.85L303.65 13.02L303.65 13.02Q303.65 13.65 303.43 14.17L303.43 14.17L303.43 14.17Q303.21 14.70 302.79 15.08L302.79 15.08L302.79 15.08Q302.36 15.46 301.73 15.67L301.73 15.67L301.73 15.67Q301.10 15.88 300.27 15.88L300.27 15.88L300.27 15.88Q299.33 15.88 298.61 15.60L298.61 15.60L298.61 15.60Q297.89 15.33 297.41 14.85L297.41 14.85L297.41 14.85Q296.93 14.36 296.67 13.71L296.67 13.71L296.67 13.71Q296.42 13.06 296.42 12.29L296.42 12.29L296.42 11.87L297.60 11.87L297.60 12.21L297.60 12.21Q297.60 13.50 298.31 14.14L298.31 14.14L298.31 14.14Q299.01 14.78 300.27 14.78L300.27 14.78L300.27 14.78Q301.36 14.78 301.92 14.30L301.92 14.30L301.92 14.30Q302.47 13.82 302.47 13.02L302.47 13.02L302.47 12.94L302.47 12.94Q302.47 12.17 301.90 11.76L301.90 11.76L301.90 11.76Q301.34 11.35 300.06 11.17L300.06 11.17L300.06 11.17Q299.32 11.07 298.73 10.87L298.73 10.87L298.73 10.87Q298.13 10.67 297.71 10.34L297.71 10.34L297.71 10.34Q297.29 10.01 297.07 9.55L297.07 9.55L297.07 9.55Q296.84 9.09 296.84 8.46L296.84 8.46L296.84 8.29L296.84 8.29Q296.84 7.71 297.08 7.24L297.08 7.24L297.08 7.24Q297.32 6.76 297.75 6.41L297.75 6.41L297.75 6.41Q298.17 6.06 298.77 5.87L298.77 5.87L298.77 5.87Q299.36 5.68 300.08 5.68L300.08 5.68L300.08 5.68Q300.90 5.68 301.55 5.92L301.55 5.92L301.55 5.92Q302.20 6.16 302.65 6.56L302.65 6.56L302.65 6.56Q303.10 6.96 303.33 7.50L303.33 7.50L303.33 7.50Q303.56 8.04 303.56 8.62L303.56 8.62L303.56 9.21L302.39 9.21ZM312.28 5.88L313.46 5.88L313.46 12.38L313.46 12.38Q313.46 13.57 314.01 14.17L314.01 14.17L314.01 14.17Q314.57 14.78 315.64 14.78L315.64 14.78L315.64 14.78Q316.72 14.78 317.28 14.17L317.28 14.17L317.28 14.17Q317.83 13.57 317.83 12.38L317.83 12.38L317.83 5.88L319.00 5.88L319.00 12.38L319.00 12.38Q319.00 14.08 318.11 14.98L318.11 14.98L318.11 14.98Q317.21 15.88 315.64 15.88L315.64 15.88L315.64 15.88Q314.08 15.88 313.18 14.98L313.18 14.98L313.18 14.98Q312.28 14.08 312.28 12.38L312.28 12.38L312.28 5.88ZM331.62 11.65L329.29 11.65L329.29 15.68L328.12 15.68L328.12 5.88L331.62 5.88L331.62 5.88Q332.37 5.88 332.93 6.10L332.93 6.10L332.93 6.10Q333.49 6.31 333.87 6.68L333.87 6.68L333.87 6.68Q334.24 7.04 334.43 7.53L334.43 7.53L334.43 7.53Q334.61 8.01 334.61 8.54L334.61 8.54L334.61 8.96L334.61 8.96Q334.61 9.49 334.43 9.98L334.43 9.98L334.43 9.98Q334.24 10.47 333.86 10.84L333.86 10.84L333.86 10.84Q333.48 11.21 332.92 11.43L332.92 11.43L332.92 11.43Q332.36 11.65 331.62 11.65L331.62 11.65ZM329.29 6.97L329.29 10.56L331.48 10.56L331.48 10.56Q333.44 10.56 333.44 8.88L333.44 8.88L333.44 8.62L333.44 8.62Q333.44 7.88 332.95 7.43L332.95 7.43L332.95 7.43Q332.47 6.97 331.48 6.97L331.48 6.97L329.29 6.97ZM347.19 11.65L344.86 11.65L344.86 15.68L343.69 15.68L343.69 5.88L347.19 5.88L347.19 5.88Q347.94 5.88 348.50 6.10L348.50 6.10L348.50 6.10Q349.06 6.31 349.43 6.68L349.43 6.68L349.43 6.68Q349.80 7.04 349.99 7.53L349.99 7.53L349.99 7.53Q350.18 8.01 350.18 8.54L350.18 8.54L350.18 8.96L350.18 8.96Q350.18 9.49 349.99 9.98L349.99 9.98L349.99 9.98Q349.80 10.47 349.43 10.84L349.43 10.84L349.43 10.84Q349.05 11.21 348.49 11.43L348.49 11.43L348.49 11.43Q347.93 11.65 347.19 11.65L347.19 11.65ZM344.86 6.97L344.86 10.56L347.05 10.56L347.05 10.56Q349.01 10.56 349.01 8.88L349.01 8.88L349.01 8.62L349.01 8.62Q349.01 7.88 348.52 7.43L348.52 7.43L348.52 7.43Q348.04 6.97 347.05 6.97L347.05 6.97L344.86 6.97ZM358.90 11.87L358.90 9.69L358.90 9.69Q358.90 7.78 359.81 6.73L359.81 6.73L359.81 6.73Q360.72 5.68 362.35 5.68L362.35 5.68L362.35 5.68Q363.97 5.68 364.88 6.73L364.88 6.73L364.88 6.73Q365.79 7.78 365.79 9.69L365.79 9.69L365.79 11.87L365.79 11.87Q365.79 13.83 364.88 14.85L364.88 14.85L364.88 14.85Q363.97 15.88 362.35 15.88L362.35 15.88L362.35 15.88Q360.72 15.88 359.81 14.85L359.81 14.85L359.81 14.85Q358.90 13.83 358.90 11.87L358.90 11.87ZM362.35 14.78L362.35 14.78L362.35 14.78Q363.48 14.78 364.05 14.01L364.05 14.01L364.05 14.01Q364.62 13.23 364.62 11.79L364.62 11.79L364.62 9.77L364.62 9.77Q364.62 8.43 364.05 7.60L364.05 7.60L364.05 7.60Q363.48 6.78 362.35 6.78L362.35 6.78L362.35 6.78Q361.21 6.78 360.65 7.60L360.65 7.60L360.65 7.60Q360.08 8.43 360.08 9.77L360.08 9.77L360.08 11.79L360.08 11.79Q360.08 13.23 360.65 14.01L360.65 14.01L360.65 14.01Q361.21 14.78 362.35 14.78ZM380.98 12.15L380.98 15.68L379.81 15.68L379.81 12.40L379.81 12.40Q379.81 12.04 379.64 11.84L379.64 11.84L379.64 11.84Q379.47 11.65 379.05 11.65L379.05 11.65L376.00 11.65L376.00 15.68L374.82 15.68L374.82 5.88L378.32 5.88L378.32 5.88Q379.08 5.88 379.64 6.10L379.64 6.10L379.64 6.10Q380.20 6.31 380.57 6.68L380.57 6.68L380.57 6.68Q380.94 7.04 381.13 7.53L381.13 7.53L381.13 7.53Q381.32 8.01 381.32 8.54L381.32 8.54L381.32 8.96L381.32 8.96Q381.32 9.51 381.02 10.05L381.02 10.05L381.02 10.05Q380.72 10.60 380.09 10.89L380.09 10.89L380.09 11.06L380.09 11.06Q380.51 11.13 380.74 11.40L380.74 11.40L380.74 11.40Q380.98 11.66 380.98 12.15L380.98 12.15ZM376.00 6.97L376.00 10.56L378.18 10.56L378.18 10.56Q379.18 10.56 379.66 10.13L379.66 10.13L379.66 10.13Q380.14 9.70 380.14 8.88L380.14 8.88L380.14 8.62L380.14 8.62Q380.14 7.88 379.66 7.43L379.66 7.43L379.66 7.43Q379.18 6.97 378.18 6.97L378.18 6.97L376.00 6.97ZM390.04 6.97L390.04 5.88L396.93 5.88L396.93 6.97L394.07 6.97L394.07 15.68L392.90 15.68L392.90 6.97L390.04 6.97ZM406.08 15.68L406.08 5.88L412.02 5.88L412.02 6.97L407.26 6.97L407.26 10.22L411.94 10.22L411.94 11.31L407.26 11.31L407.26 14.59L412.10 14.59L412.10 15.68L406.08 15.68ZM421.36 6.97L421.36 5.88L424.58 5.88L424.58 5.88Q426.40 5.88 427.24 6.75L427.24 6.75L427.24 6.75Q428.08 7.62 428.08 9.52L428.08 9.52L428.08 12.04L428.08 12.04Q428.08 13.94 427.24 14.81L427.24 14.81L427.24 14.81Q426.40 15.68 424.58 15.68L424.58 15.68L421.36 15.68L421.36 14.57L422.20 14.57L422.20 6.97L421.36 6.97ZM423.37 14.59L424.41 14.59L424.41 14.59Q425.05 14.59 425.52 14.46L425.52 14.46L425.52 14.46Q425.99 14.34 426.30 14.04L426.30 14.04L426.30 14.04Q426.61 13.73 426.75 13.23L426.75 13.23L426.75 13.23Q426.90 12.73 426.90 11.96L426.90 11.96L426.90 9.60L426.90 9.60Q426.90 8.83 426.75 8.33L426.75 8.33L426.75 8.33Q426.61 7.83 426.30 7.53L426.30 7.53L426.30 7.53Q425.99 7.22 425.52 7.10L425.52 7.10L425.52 7.10Q425.05 6.97 424.41 6.97L424.41 6.97L423.37 6.97L423.37 14.59ZM452.27 15.68L452.27 14.59L453.11 14.59L453.11 6.97L452.27 6.97L452.27 5.88L456.23 5.88L456.23 5.88Q456.93 5.88 457.47 6.08L457.47 6.08L457.47 6.08Q458.01 6.27 458.38 6.61L458.38 6.61L458.38 6.61Q458.75 6.94 458.94 7.41L458.94 7.41L458.94 7.41Q459.13 7.88 459.13 8.43L459.13 8.43L459.13 8.60L459.13 8.60Q459.13 9.00 459.00 9.34L459.00 9.34L459.00 9.34Q458.88 9.67 458.65 9.94L458.65 9.94L458.65 9.94Q458.43 10.21 458.13 10.39L458.13 10.39L458.13 10.39Q457.83 10.58 457.48 10.68L457.48 10.68L457.48 10.85L457.48 10.85Q458.18 11.05 458.65 11.60L458.65 11.60L458.65 11.60Q459.13 12.15 459.13 12.95L459.13 12.95L459.13 13.12L459.13 13.12Q459.13 13.66 458.94 14.13L458.94 14.13L458.94 14.13Q458.75 14.60 458.38 14.95L458.38 14.95L458.38 14.95Q458.01 15.29 457.47 15.48L457.47 15.48L457.47 15.48Q456.93 15.68 456.23 15.68L456.23 15.68L452.27 15.68ZM454.29 11.31L454.29 14.59L456.15 14.59L456.15 14.59Q456.97 14.59 457.49 14.17L457.49 14.17L457.49 14.17Q458.01 13.76 458.01 13.03L458.01 13.03L458.01 12.95L458.01 12.95Q458.01 12.19 457.52 11.75L457.52 11.75L457.52 11.75Q457.03 11.31 456.19 11.31L456.19 11.31L454.29 11.31ZM454.29 6.97L454.29 10.22L456.19 10.22L456.19 10.22Q457.03 10.22 457.52 9.79L457.52 9.79L457.52 9.79Q458.01 9.35 458.01 8.60L458.01 8.60L458.01 8.51L458.01 8.51Q458.01 7.80 457.49 7.38L457.49 7.38L457.49 7.38Q456.97 6.97 456.15 6.97L456.15 6.97L454.29 6.97ZM470.74 15.68L470.74 12.24L470.48 12.24L467.42 5.88L468.73 5.88L471.24 11.23L471.41 11.23L473.91 5.88L475.23 5.88L472.16 12.24L471.91 12.24L471.91 15.68L470.74 15.68ZM499.35 6.97L499.35 5.88L505.57 5.88L505.57 6.97L503.05 6.97L503.05 14.59L505.57 14.59L505.57 15.68L499.35 15.68L499.35 14.59L501.87 14.59L501.87 6.97L499.35 6.97ZM517.12 5.88L519.95 15.18L520.11 15.18L520.11 5.88L521.29 5.88L521.29 15.68L518.94 15.68L516.11 6.38L515.94 6.38L515.94 15.68L514.77 15.68L514.77 5.88L517.12 5.88ZM532.46 15.68L529.69 5.88L530.95 5.88L533.51 15.18L533.68 15.18L536.24 5.88L537.50 5.88L534.73 15.68L532.46 15.68ZM546.06 6.97L546.06 5.88L552.27 5.88L552.27 6.97L549.75 6.97L549.75 14.59L552.27 14.59L552.27 15.68L546.06 15.68L546.06 14.59L548.58 14.59L548.58 6.97L546.06 6.97ZM561.29 6.97L561.29 5.88L568.18 5.88L568.18 6.97L565.32 6.97L565.32 15.68L564.14 15.68L564.14 6.97L561.29 6.97ZM577.33 15.68L577.33 5.88L583.27 5.88L583.27 6.97L578.51 6.97L578.51 10.22L583.18 10.22L583.18 11.31L578.51 11.31L578.51 14.59L583.35 14.59L583.35 15.68L577.33 15.68ZM592.90 15.68L592.90 5.88L598.84 5.88L598.84 6.97L594.08 6.97L594.08 10.22L598.75 10.22L598.75 11.31L594.08 11.31L594.08 14.59L598.92 14.59L598.92 15.68L592.90 15.68ZM613.75 9.21L613.75 8.71L613.75 8.71Q613.75 8.23 613.56 7.87L613.56 7.87L613.56 7.87Q613.37 7.50 613.05 7.27L613.05 7.27L613.05 7.27Q612.72 7.03 612.30 6.90L612.30 6.90L612.30 6.90Q611.88 6.78 611.42 6.78L611.42 6.78L611.42 6.78Q611.02 6.78 610.65 6.88L610.65 6.88L610.65 6.88Q610.29 6.99 610.00 7.18L610.00 7.18L610.00 7.18Q609.71 7.38 609.55 7.66L609.55 7.66L609.55 7.66Q609.38 7.95 609.38 8.33L609.38 8.33L609.38 8.41L609.38 8.41Q609.38 8.82 609.55 9.11L609.55 9.11L609.55 9.11Q609.71 9.39 610.04 9.60L610.04 9.60L610.04 9.60Q610.37 9.80 610.86 9.93L610.86 9.93L610.86 9.93Q611.35 10.07 612.01 10.16L612.01 10.16L612.01 10.16Q613.55 10.40 614.28 11.07L614.28 11.07L614.28 11.07Q615.01 11.73 615.01 12.85L615.01 12.85L615.01 13.02L615.01 13.02Q615.01 13.65 614.79 14.17L614.79 14.17L614.79 14.17Q614.57 14.70 614.14 15.08L614.14 15.08L614.14 15.08Q613.72 15.46 613.09 15.67L613.09 15.67L613.09 15.67Q612.46 15.88 611.63 15.88L611.63 15.88L611.63 15.88Q610.69 15.88 609.97 15.60L609.97 15.60L609.97 15.60Q609.25 15.33 608.77 14.85L608.77 14.85L608.77 14.85Q608.29 14.36 608.03 13.71L608.03 13.71L608.03 13.71Q607.78 13.06 607.78 12.29L607.78 12.29L607.78 11.87L608.96 11.87L608.96 12.21L608.96 12.21Q608.96 13.50 609.66 14.14L609.66 14.14L609.66 14.14Q610.37 14.78 611.63 14.78L611.63 14.78L611.63 14.78Q612.72 14.78 613.28 14.30L613.28 14.30L613.28 14.30Q613.83 13.82 613.83 13.02L613.83 13.02L613.83 12.94L613.83 12.94Q613.83 12.17 613.26 11.76L613.26 11.76L613.26 11.76Q612.70 11.35 611.42 11.17L611.42 11.17L611.42 11.17Q610.68 11.07 610.08 10.87L610.08 10.87L610.08 10.87Q609.49 10.67 609.07 10.34L609.07 10.34L609.07 10.34Q608.65 10.01 608.43 9.55L608.43 9.55L608.43 9.55Q608.20 9.09 608.20 8.46L608.20 8.46L608.20 8.29L608.20 8.29Q608.20 7.71 608.44 7.24L608.44 7.24L608.44 7.24Q608.68 6.76 609.10 6.41L609.10 6.41L609.10 6.41Q609.53 6.06 610.13 5.87L610.13 5.87L610.13 5.87Q610.72 5.68 611.44 5.68L611.44 5.68L611.44 5.68Q612.26 5.68 612.91 5.92L612.91 5.92L612.91 5.92Q613.56 6.16 614.01 6.56L614.01 6.56L614.01 6.56Q614.46 6.96 614.69 7.50L614.69 7.50L614.69 7.50Q614.92 8.04 614.92 8.62L614.92 8.62L614.92 9.21L613.75 9.21Z"></path></g></svg>