<svg data-v-d3f97b9e="" xmlns="http://www.w3.org/2000/svg" viewBox="0 0 65.417648955478 60"><!----><!----><!----><!----><g data-v-d3f97b9e="" id="6fa2e266-f376-4071-9a53-f3393e32c129" transform="matrix(0.798143744468689,0,0,0.798143744468689,-6.906494140625,-9.757761001586914)" stroke="none" fill="white"><path d="M11.5 15.7l1.6 13c0 .3.2.6.5.8.1.1.3.1.5.1s.3 0 .5-.1l9.7-5v15.7h-3.9c-1.2 0-2.2 1-2.2 2.2v1.4c0 .2 0 .4.1.5-3.2 1.1-5.5 4.2-5.5 7.7v19c0 4.1 3.1 7.5 7 8.1V81c0 .9.9 1.4 2 1.6v2.7c0 .6.4 1 1 1s1-.4 1-1v-2.6h.5v3.5c0 .6.4 1 1 1s1-.4 1-1v-3.5h.5v2.6c0 .6.4 1 1 1s1-.4 1-1v-2.7c1.1-.2 2-.7 2-1.6v-1.8c4-.6 7-4 7-8.1v-19c0-3.6-2.3-6.6-5.5-7.7 0-.2.1-.3.1-.5v-1.4c0-1.2-1-2.2-2.2-2.2h-3.9V25.7l3.1 10.5c.1.3.3.6.6.7.1 0 .2.1.3.1.2 0 .4-.1.6-.2l9.4-6.9 4.9 10.8c.1.3.4.5.7.6h.2c.3 0 .5-.1.7-.3l8.7-8.6 6.7 10.9c.2.3.5.5.8.5h.1c.3 0 .6-.1.8-.4l6.1-7.7v10.8h-4.9c-1.2 0-2.3 1-2.3 2.3v1.5c-7 2.5-11.5 8.1-11.5 14.3 0 7.2 6 13.2 14.2 15.1v2.8c0 .8.7 1.5 1.8 1.8v1.5c0 .6.4 1 1 1s1-.4 1-1v-1.3h.5v1.9c0 .6.4 1 1 1s1-.4 1-1v-1.9h.5v1.3c0 .6.4 1 1 1s1-.4 1-1v-1.5c1.2-.3 2-.9 2-1.8v-2.8c8.2-1.9 14.2-7.9 14.2-15.1 0-6-4.6-11.7-11.5-14.3v-1.5c0-1.2-1-2.3-2.3-2.3H72V34.7l6.3 8.2c.2.2.5.4.8.4.3 0 .6-.2.8-.5L87 31.7c1.7-.2 2.7-.3 2.8-.4.5-.1.9-.6.8-1.1-.1-.5-.6-.9-1.1-.8-.5.1-46.2 7.3-79.2-17-.4-.3-1.1-.2-1.4.2-.4.4-.3 1.1.2 1.4.8.6 1.6 1.2 2.4 1.7zm3.3 46.9h21.1v6.3H14.8v-6.3zm21-2h-21v-6.3h21.1v6.3zm-8.5 20.2h-4.1c-.7 0-1.2-.1-1.4-.2v-1.3h7v1.3c-.3.1-.8.2-1.5.2zm2.3-3.5h-8.7c-3.4 0-6.2-2.8-6.2-6.2v-.2h21.1v.2c0 3.4-2.8 6.2-6.2 6.2zm6.2-25.2v.2h-21v-.2c0-3.1 2.3-5.7 5.3-6.1H30.7c2.8.4 5.1 3 5.1 6.1zm-5.4-9.7v1.5H20.3v-1.5c0-.1.1-.2.2-.2h9.8c0 .1.1.1.1.2zm45.4 9.7c1.7 2.2 10 14-.3 25.6-1.5.3-3 .5-4.6.5-1.4 0-2.8-.1-4.1-.4-10-11.7-1.8-23.5-.1-25.7h9.1zM53.4 64.5C53.4 59 57.6 54 64 51.9h.1c.1 0 .2.1.3.1-2.5 3.8-8 14.4-.6 25-6.2-2.2-10.4-7-10.4-12.5zm20.9 17.6c-.2.1-.7.2-1.4.2h-4c-.7 0-1.2-.1-1.4-.2v-2.2c1.1.2 2.2.2 3.4.2 1.2 0 2.3-.1 3.4-.2v2.2zm14.3-17.6c0 5.3-4 10-9.7 12.2 7.3-10.5 1.9-20.9-.6-24.7 6.1 2.3 10.3 7.3 10.3 12.5zM77.1 48.7v1.1c0 .1-.1.3-.3.3h-.4-10.1-1.1c-.1 0-.3-.1-.3-.3v-1.1c0-.1.1-.3.3-.3H77s.1.1.1.3zM13.7 17.2c3.3 2.1 6.6 3.9 10 5.4l-8.8 4.5-1.2-9.9zm17.2 17.1L28 24.4c3.7 1.5 7.5 2.7 11.2 3.7l-8.3 6.2zm15.5 4.2l-4.3-9.6c4 1 8 1.7 11.8 2.2l-7.5 7.4zm16.8 2.4l-5.8-9.4c4.5.5 8.7.7 12.5.8l-6.7 8.6zm9.7-8.5c4.7 0 8.6-.2 11.5-.5L79 40.6l-6.2-8.1c0-.1 0-.1.1-.1z"></path></g><!----></svg>