<svg xmlns="http://www.w3.org/2000/svg" width="600" height="600" fill="none" viewBox="0 0 600 600"><path fill="#70e884" fill-rule="evenodd" d="m268.034 256.632 17.168 79.642c3.401 15.776 16.715 27.483 32.809 28.848l83.559 7.088 8.019 29.656a18.34 18.34 0 0 1-2.753 15.41l-84.664 119.188a18.38 18.38 0 0 1-20.547 6.868L170.01 501.519a18.36 18.36 0 0 1-11.024-9.611L100.78 369.569a18.34 18.34 0 0 1 4.386-21.597l108.073-95.988z" clip-rule="evenodd"/><path fill="#ff3167" fill-rule="evenodd" d="M464.896 178.115a18.37 18.37 0 0 0-18.103-12.8l-103.532 3.332-50.874 71.748 69.088 5.859c15.396 1.306 28.33 12.098 32.36 27.002l20.662 76.404 76.198-40.355c7.84-4.152 11.589-13.31 8.908-21.761z" clip-rule="evenodd"/><path fill="#0467f1" fill-rule="evenodd" d="M166.209 68.499c2.787-8.27 11.016-13.436 19.682-12.357l108.27 13.483a18.365 18.365 0 0 1 15.541 13.73l18.763 74.409-57.307 80.82-57.776-5.002-71.79-51.279a18.34 18.34 0 0 1-6.726-20.787z" clip-rule="evenodd"/><path fill="#ffe504" fill-rule="evenodd" d="m303.16 332.41-15.959-74.035 72.718 6.168a18.365 18.365 0 0 1 16.18 13.5l20.367 75.314-76.902-6.523a18.365 18.365 0 0 1-16.404-14.424" clip-rule="evenodd"/></svg>